<svg width="140" height="140" viewBox="0 0 140 140" fill="none" xmlns="http://www.w3.org/2000/svg">
<path opacity="0.1" d="M70 0C83.8447 0 97.3785 4.10543 108.89 11.7971C120.401 19.4888 129.373 30.4213 134.672 43.2121C139.97 56.003 141.356 70.0776 138.655 83.6563C135.954 97.235 129.287 109.708 119.497 119.497C109.708 129.287 97.235 135.954 83.6563 138.655C70.0776 141.356 56.003 139.97 43.2121 134.672C30.4213 129.373 19.4888 120.401 11.7971 108.89C4.10543 97.3785 0 83.8447 0 70C0 51.4348 7.37498 33.6301 20.5025 20.5025C33.6301 7.37498 51.4348 0 70 0V0Z" fill="#A9A9B0"/>
<path d="M102.566 76.941L88.399 64.147H51.599L37.434 76.941L35.483 74.767L50.483 61.22H89.519L104.519 74.767L102.566 76.941Z" fill="#B9B9C3"/>
<path d="M39.375 100C38.2129 99.9968 37.0995 99.5327 36.2793 98.7094C35.459 97.8862 34.9989 96.7711 35 95.609V74.39H58.333V75.853C58.3317 77.5968 59.0225 79.2699 60.2538 80.5048C61.4851 81.7396 63.1562 82.4353 64.9 82.439H75.1C76.843 82.4342 78.5129 81.7382 79.7433 80.5037C80.9737 79.2692 81.6641 77.597 81.663 75.854V74.39H105V95.609C105.001 96.771 104.541 97.8858 103.72 98.7088C102.9 99.5318 101.787 99.9958 100.625 99.999L39.375 100Z" fill="#B9B9C3"/>
<path d="M55.922 41.425L61.026 49.4458L58.5566 51.0172L53.4526 42.9965L55.922 41.425Z" fill="#B9B9C3"/>
<path d="M84.821 41.411L87.2821 42.9769L82.161 51.0258L79.6999 49.46L84.821 41.411Z" fill="#B9B9C3"/>
<path d="M68.542 40H71.459V49.512H68.542V40Z" fill="#B9B9C3"/>
</svg>
