<svg width="196" height="42" viewBox="0 0 196 42" fill="none" xmlns="http://www.w3.org/2000/svg">
<g filter="url(#filter0_i_7045_7584)">
<path d="M31.2577 5.03919L27.3385 9.66061C22.4431 6.61701 15.9448 7.47425 12.1934 11.8978L3.66601 21.9531C-0.438727 26.7933 0.276339 34.0972 5.26003 38.2349C10.2436 42.3725 17.6376 41.801 21.7423 36.9608L25.6615 32.3394C30.5568 35.383 37.0553 34.5257 40.8067 30.1021L49.334 20.0469C53.4387 15.2068 52.7237 7.90278 47.74 3.76511C42.7562 -0.372475 35.3624 0.19907 31.2577 5.03919ZM46.6798 17.8433L38.1525 27.8985C35.2532 31.3172 30.0306 31.721 26.5105 28.7984C22.9904 25.8759 22.4852 20.7169 25.3846 17.2981C25.9882 16.5863 25.8834 15.5158 25.1505 14.9073C24.4176 14.2989 23.334 14.3826 22.7304 15.0944C19.0149 19.4755 19.2486 25.8751 23.0222 30.1182L19.088 34.7572C16.1888 38.1759 10.9662 38.5796 7.44604 35.657C3.92598 32.7345 3.42082 27.5754 6.32014 24.1566L14.8475 14.1014C17.7467 10.6827 22.9693 10.2789 26.4895 13.2015C30.0095 16.124 30.5147 21.283 27.6154 24.7018C27.0117 25.4136 27.1165 26.4841 27.8494 27.0926C28.5823 27.701 29.666 27.6173 30.2696 26.9055C33.985 22.5244 33.7513 16.1248 29.9777 11.8817L33.9119 7.24268C36.8111 3.82396 42.0337 3.42018 45.5539 6.34275C49.0739 9.26548 49.5791 14.4246 46.6798 17.8433Z" fill="white"/>
</g>
<path d="M31.067 4.8775L27.2861 9.33589C22.3127 6.36436 15.7911 7.26896 12.0027 11.7361L3.47534 21.7914C-0.722508 26.7414 0.0134124 34.2038 5.10033 38.4272C10.1857 42.6493 17.7366 42.0708 21.933 37.1225L25.7139 32.6641C30.6872 35.6357 37.2089 34.731 40.9973 30.2638L49.5247 20.2086C53.7225 15.2587 52.9866 7.79614 47.8997 3.57277L47.74 3.76511L47.8997 3.57276C42.8142 -0.649321 35.2634 -0.0707532 31.067 4.8775ZM46.4891 17.6816L37.9618 27.7368C35.1542 31.0474 30.0885 31.4442 26.6702 28.6061C23.2533 25.7693 22.769 20.7688 25.5752 17.4598C26.272 16.6382 26.1463 15.4092 25.3102 14.715C24.4755 14.022 23.235 14.1128 22.5397 14.9327C18.7877 19.357 18.9774 25.7889 22.6924 30.1206L18.8974 34.5955C16.0898 37.9061 11.0241 38.3027 7.60574 35.4646C4.18891 32.6279 3.70461 27.6273 6.5108 24.3183L15.0382 14.2631C17.8457 10.9525 22.9114 10.5557 26.3298 13.3938C29.7466 16.2306 30.2309 21.2311 27.4247 24.5401C26.728 25.3617 26.8536 26.5907 27.6897 27.2849C28.5244 27.9779 29.7649 27.8871 30.4603 27.0672C34.2123 22.6429 34.0225 16.211 30.3076 11.8793L34.1026 7.40437C36.9101 4.09378 41.9758 3.69703 45.3942 6.5351C48.811 9.37212 49.2953 14.3727 46.4891 17.6816Z" stroke="white" stroke-width="0.5"/>
<path d="M73.986 29.26C72.4607 29.26 71.0653 29.0087 69.8 28.506C68.5347 27.986 67.4427 27.2667 66.524 26.348C65.6227 25.412 64.9207 24.3113 64.418 23.046C63.9153 21.7633 63.664 20.3593 63.664 18.834C63.664 17.3087 63.9153 15.9133 64.418 14.648C64.9207 13.3827 65.6227 12.2907 66.524 11.372C67.4427 10.436 68.5347 9.71667 69.8 9.214C71.0653 8.694 72.4607 8.434 73.986 8.434C75.5113 8.434 76.898 8.694 78.146 9.214C79.4113 9.71667 80.5033 10.436 81.422 11.372C82.3407 12.2907 83.0513 13.3827 83.554 14.648C84.0567 15.9133 84.308 17.3087 84.308 18.834C84.308 20.3593 84.0567 21.7633 83.554 23.046C83.0513 24.3113 82.3407 25.412 81.422 26.348C80.5033 27.2667 79.4113 27.986 78.146 28.506C76.898 29.0087 75.5113 29.26 73.986 29.26ZM73.986 26.816C75.1127 26.816 76.144 26.6167 77.08 26.218C78.0333 25.802 78.8567 25.2387 79.55 24.528C80.2433 23.8 80.772 22.9507 81.136 21.98C81.5173 21.0093 81.708 19.9607 81.708 18.834C81.708 17.7073 81.5173 16.6587 81.136 15.688C80.772 14.7173 80.2433 13.8767 79.55 13.166C78.8567 12.438 78.0333 11.8747 77.08 11.476C76.144 11.0773 75.1127 10.878 73.986 10.878C72.8593 10.878 71.8193 11.0773 70.866 11.476C69.93 11.8747 69.1153 12.438 68.422 13.166C67.746 13.8767 67.2173 14.7173 66.836 15.688C66.4547 16.6587 66.264 17.7073 66.264 18.834C66.264 19.9607 66.4547 21.0093 66.836 21.98C67.2173 22.9507 67.746 23.8 68.422 24.528C69.1153 25.2387 69.93 25.802 70.866 26.218C71.8193 26.6167 72.8593 26.816 73.986 26.816ZM89.8954 29C89.514 29 89.1934 28.87 88.9334 28.61C88.6734 28.35 88.5434 28.0293 88.5434 27.648V10.046C88.5434 9.64733 88.6734 9.32667 88.9334 9.084C89.1934 8.824 89.514 8.694 89.8954 8.694H94.6014C96.092 8.694 97.444 8.94533 98.6574 9.448C99.888 9.93333 100.954 10.6353 101.855 11.554C102.757 12.4553 103.45 13.5213 103.935 14.752C104.421 15.9827 104.663 17.3433 104.663 18.834C104.663 20.3247 104.421 21.694 103.935 22.942C103.45 24.1727 102.757 25.2473 101.855 26.166C100.954 27.0673 99.888 27.7693 98.6574 28.272C97.444 28.7573 96.092 29 94.6014 29H89.8954ZM91.2474 26.608H94.6014C96.0574 26.608 97.34 26.2787 98.4494 25.62C99.576 24.944 100.46 24.0253 101.101 22.864C101.743 21.6853 102.063 20.342 102.063 18.834C102.063 17.3087 101.743 15.9653 101.101 14.804C100.46 13.6427 99.576 12.7327 98.4494 12.074C97.34 11.4153 96.0574 11.086 94.6014 11.086H91.2474V26.608ZM107.593 29C107.107 29 106.735 28.792 106.475 28.376C106.215 27.96 106.189 27.518 106.397 27.05L113.703 9.604C113.963 8.99733 114.387 8.694 114.977 8.694C115.601 8.694 116.025 8.99733 116.251 9.604L123.583 27.102C123.773 27.5873 123.739 28.0293 123.479 28.428C123.236 28.8093 122.863 29 122.361 29C122.101 29 121.849 28.9307 121.607 28.792C121.381 28.636 121.217 28.428 121.113 28.168L114.665 12.152H115.393L108.841 28.168C108.719 28.4453 108.537 28.6533 108.295 28.792C108.069 28.9307 107.835 29 107.593 29ZM108.971 24.528L110.011 22.292H120.203L121.243 24.528H108.971ZM135.623 29C135.242 29 134.921 28.87 134.661 28.61C134.419 28.35 134.297 28.0293 134.297 27.648V10.046C134.297 9.66467 134.427 9.344 134.687 9.084C134.947 8.824 135.259 8.694 135.623 8.694C136.005 8.694 136.325 8.824 136.585 9.084C136.845 9.344 136.975 9.66467 136.975 10.046V26.296H146.387C146.769 26.296 147.089 26.426 147.349 26.686C147.609 26.946 147.739 27.2667 147.739 27.648C147.739 28.0293 147.609 28.35 147.349 28.61C147.089 28.87 146.769 29 146.387 29H135.623ZM152.331 29C151.95 29 151.629 28.87 151.369 28.61C151.109 28.35 150.979 28.0293 150.979 27.648V10.046C150.979 9.64733 151.109 9.32667 151.369 9.084C151.629 8.824 151.95 8.694 152.331 8.694C152.73 8.694 153.05 8.824 153.293 9.084C153.553 9.32667 153.683 9.64733 153.683 10.046V27.648C153.683 28.0293 153.553 28.35 153.293 28.61C153.05 28.87 152.73 29 152.331 29ZM160.201 29C159.82 29 159.499 28.87 159.239 28.61C158.997 28.35 158.875 28.0293 158.875 27.648V10.046C158.875 9.64733 158.997 9.32667 159.239 9.084C159.499 8.824 159.82 8.694 160.201 8.694C160.617 8.694 160.964 8.85867 161.241 9.188L172.577 24.268V10.046C172.577 9.64733 172.707 9.32667 172.967 9.084C173.227 8.824 173.548 8.694 173.929 8.694C174.328 8.694 174.649 8.824 174.891 9.084C175.134 9.32667 175.255 9.64733 175.255 10.046V27.648C175.255 28.0293 175.134 28.35 174.891 28.61C174.649 28.87 174.328 29 173.929 29C173.756 29 173.565 28.9653 173.357 28.896C173.167 28.8093 173.011 28.688 172.889 28.532L161.553 13.452V27.648C161.553 28.0293 161.423 28.35 161.163 28.61C160.921 28.87 160.6 29 160.201 29ZM181.809 29C181.445 29 181.125 28.87 180.847 28.61C180.587 28.35 180.457 28.0293 180.457 27.648V10.046C180.457 9.66467 180.587 9.344 180.847 9.084C181.125 8.824 181.445 8.694 181.809 8.694C182.191 8.694 182.511 8.824 182.771 9.084C183.031 9.344 183.161 9.66467 183.161 10.046V17.846L191.767 9.24C191.975 9.032 192.166 8.89333 192.339 8.824C192.513 8.73733 192.695 8.694 192.885 8.694C193.319 8.694 193.631 8.824 193.821 9.084C194.012 9.344 194.081 9.656 194.029 10.02C193.977 10.3667 193.813 10.6873 193.535 10.982L186.905 17.638L193.665 26.842C193.873 27.1367 193.96 27.4573 193.925 27.804C193.891 28.1333 193.769 28.4193 193.561 28.662C193.353 28.8873 193.076 29 192.729 29C192.244 29 191.871 28.8093 191.611 28.428L185.033 19.51L183.161 21.382V27.648C183.161 28.0293 183.031 28.35 182.771 28.61C182.511 28.87 182.191 29 181.809 29Z" fill="white"/>
<path d="M69.8 28.506L69.6099 28.9685L69.6154 28.9707L69.8 28.506ZM66.524 26.348L66.1638 26.6949L66.1704 26.7016L66.524 26.348ZM64.418 23.046L63.9525 23.2284L63.9533 23.2306L64.418 23.046ZM64.418 14.648L63.9533 14.4634H63.9533L64.418 14.648ZM66.524 11.372L66.1672 11.0218L66.1671 11.0218L66.524 11.372ZM69.8 9.214L69.9846 9.67871L69.9901 9.67647L69.8 9.214ZM78.146 9.214L77.9537 9.6756L77.9614 9.67868L78.146 9.214ZM81.422 11.372L81.0651 11.7222L81.0684 11.7256L81.422 11.372ZM83.554 14.648L84.0187 14.4634V14.4634L83.554 14.648ZM83.554 23.046L84.0187 23.2306L84.0195 23.2284L83.554 23.046ZM81.422 26.348L81.7756 26.7016L81.7788 26.6982L81.422 26.348ZM78.146 28.506L78.3328 28.9698L78.3361 28.9685L78.146 28.506ZM77.08 26.218L77.2759 26.678L77.28 26.6763L77.08 26.218ZM79.55 24.528L79.9079 24.8772L79.9121 24.8728L79.55 24.528ZM81.136 21.98L80.6706 21.7972L80.6678 21.8044L81.136 21.98ZM81.136 15.688L80.6678 15.8636L80.6706 15.8708L81.136 15.688ZM79.55 13.166L79.1879 13.5109L79.1921 13.5152L79.55 13.166ZM77.08 11.476L76.8841 11.936L76.8871 11.9373L77.08 11.476ZM70.866 11.476L70.6731 11.0147L70.6701 11.016L70.866 11.476ZM68.422 13.166L68.0599 12.8212L68.0597 12.8214L68.422 13.166ZM68.422 24.528L68.0555 24.8683L68.0641 24.8772L68.422 24.528ZM70.866 26.218L70.6629 26.675L70.6731 26.6793L70.866 26.218ZM73.986 28.76C72.5163 28.76 71.1845 28.518 69.9846 28.0413L69.6154 28.9707C70.9461 29.4993 72.405 29.76 73.986 29.76V28.76ZM69.9901 28.0435C68.7826 27.5473 67.747 26.8639 66.8776 25.9944L66.1704 26.7016C67.1383 27.6694 68.2867 28.4247 69.6099 28.9685L69.9901 28.0435ZM66.8842 26.0012C66.03 25.1142 65.3625 24.0693 64.8827 22.8614L63.9533 23.2306C64.4788 24.5533 65.2153 25.7098 66.1638 26.6948L66.8842 26.0012ZM64.8835 22.8636C64.406 21.6449 64.164 20.3036 64.164 18.834H63.164C63.164 20.4151 63.4247 21.8817 63.9525 23.2284L64.8835 22.8636ZM64.164 18.834C64.164 17.3643 64.406 16.0325 64.8827 14.8326L63.9533 14.4634C63.4247 15.7941 63.164 17.253 63.164 18.834H64.164ZM64.8827 14.8326C65.3622 13.6254 66.0288 12.5906 66.8809 11.7222L66.1671 11.0218C65.2165 11.9907 64.4791 13.1399 63.9533 14.4634L64.8827 14.8326ZM66.8808 11.7222C67.7488 10.8379 68.7815 10.1566 69.9846 9.67868L69.6154 8.74932C68.2878 9.27671 67.1365 10.0341 66.1672 11.0218L66.8808 11.7222ZM69.9901 9.67647C71.1885 9.18395 72.5184 8.934 73.986 8.934V7.934C72.403 7.934 70.9421 8.20405 69.6099 8.75153L69.9901 9.67647ZM73.986 8.934C75.4538 8.934 76.774 9.18398 77.9537 9.67554L78.3383 8.75246C77.022 8.20402 75.5689 7.934 73.986 7.934V8.934ZM77.9614 9.67868C79.1645 10.1566 80.1972 10.8379 81.0652 11.7222L81.7788 11.0218C80.8095 10.0341 79.6582 9.27671 78.3306 8.74932L77.9614 9.67868ZM81.0684 11.7256C81.9367 12.5938 82.6106 13.6275 83.0893 14.8326L84.0187 14.4634C83.4921 13.1379 82.7447 11.9876 81.7756 11.0184L81.0684 11.7256ZM83.0893 14.8326C83.566 16.0325 83.808 17.3643 83.808 18.834H84.808C84.808 17.253 84.5473 15.7941 84.0187 14.4634L83.0893 14.8326ZM83.808 18.834C83.808 20.3036 83.566 21.6449 83.0885 22.8636L84.0195 23.2284C84.5473 21.8817 84.808 20.4151 84.808 18.834H83.808ZM83.0893 22.8614C82.6103 24.0673 81.9354 25.1111 81.0652 25.9978L81.7788 26.6982C82.7459 25.7129 83.4924 24.5554 84.0187 23.2306L83.0893 22.8614ZM81.0684 25.9944C80.199 26.8639 79.1634 27.5473 77.9559 28.0435L78.3361 28.9685C79.6593 28.4247 80.8077 27.6694 81.7756 26.7016L81.0684 25.9944ZM77.9592 28.0422C76.778 28.518 75.4558 28.76 73.986 28.76V29.76C75.5668 29.76 77.018 29.4994 78.3328 28.9698L77.9592 28.0422ZM73.986 27.316C75.1727 27.316 76.2716 27.1058 77.2759 26.678L76.8841 25.758C76.0164 26.1276 75.0526 26.316 73.986 26.316V27.316ZM77.28 26.6763C78.2896 26.2357 79.1673 25.6362 79.9079 24.8772L79.1921 24.1788C78.546 24.8411 77.777 25.3683 76.88 25.7597L77.28 26.6763ZM79.9121 24.8728C80.6533 24.0946 81.2173 23.1872 81.6042 22.1556L80.6678 21.8044C80.3267 22.7141 79.8334 23.5054 79.1879 24.1832L79.9121 24.8728ZM81.6014 22.1628C82.0074 21.1294 82.208 20.0182 82.208 18.834H81.208C81.208 19.9032 81.0273 20.8893 80.6706 21.7972L81.6014 22.1628ZM82.208 18.834C82.208 17.6498 82.0074 16.5386 81.6014 15.5052L80.6706 15.8708C81.0273 16.7787 81.208 17.7648 81.208 18.834H82.208ZM81.6042 15.5124C81.2169 14.4798 80.6518 13.5793 79.9079 12.8168L79.1921 13.5152C79.8349 14.174 80.3271 14.9549 80.6678 15.8636L81.6042 15.5124ZM79.9121 12.8212C79.1697 12.0417 78.2883 11.4393 77.2729 11.0147L76.8871 11.9373C77.7784 12.31 78.5437 12.8343 79.1879 13.5108L79.9121 12.8212ZM77.2759 11.016C76.2716 10.5882 75.1727 10.378 73.986 10.378V11.378C75.0526 11.378 76.0164 11.5664 76.8841 11.936L77.2759 11.016ZM73.986 10.378C72.7991 10.378 71.6929 10.5883 70.6731 11.0147L71.0589 11.9373C71.9458 11.5664 72.9195 11.378 73.986 11.378V10.378ZM70.6701 11.016C69.6722 11.441 68.8008 12.0433 68.0599 12.8212L68.7841 13.5108C69.4299 12.8327 70.1878 12.3083 71.0619 11.936L70.6701 11.016ZM68.0597 12.8214C67.3365 13.5817 66.774 14.4783 66.3706 15.5052L67.3014 15.8708C67.6606 14.9564 68.1555 14.1716 68.7843 13.5106L68.0597 12.8214ZM66.3706 15.5052C65.9646 16.5386 65.764 17.6498 65.764 18.834H66.764C66.764 17.7648 66.9447 16.7787 67.3014 15.8708L66.3706 15.5052ZM65.764 18.834C65.764 20.0182 65.9646 21.1294 66.3706 22.1628L67.3014 21.7972C66.9447 20.8893 66.764 19.9032 66.764 18.834H65.764ZM66.3706 22.1628C66.7737 23.1887 67.335 24.0922 68.0556 24.8682L68.7884 24.1878C68.157 23.5078 67.661 22.7126 67.3014 21.7972L66.3706 22.1628ZM68.0641 24.8772C68.8032 25.6347 69.6708 26.234 70.6629 26.6749L71.0691 25.7611C70.1892 25.37 69.4275 24.8426 68.7799 24.1788L68.0641 24.8772ZM70.6731 26.6793C71.6929 27.1057 72.7991 27.316 73.986 27.316V26.316C72.9195 26.316 71.9458 26.1276 71.0589 25.7567L70.6731 26.6793ZM88.9334 28.61L88.5798 28.9636V28.9636L88.9334 28.61ZM88.9334 9.084L89.2745 9.44953L89.2808 9.44365L89.2869 9.43755L88.9334 9.084ZM98.6574 9.448L98.466 9.90999L98.4739 9.91314L98.6574 9.448ZM101.855 11.554L101.498 11.9042L101.502 11.9076L101.855 11.554ZM103.935 14.752L104.4 14.5686L103.935 14.752ZM103.935 22.942L104.401 23.1254L104.401 23.1232L103.935 22.942ZM101.855 26.166L102.209 26.5196L102.212 26.5162L101.855 26.166ZM98.6574 28.272L98.8431 28.7362L98.8464 28.7349L98.6574 28.272ZM91.2474 26.608H90.7474V27.108H91.2474V26.608ZM98.4494 25.62L98.7046 26.0499L98.7066 26.0487L98.4494 25.62ZM101.101 22.864L101.539 23.1057L101.541 23.103L101.101 22.864ZM101.101 14.804L100.664 15.0457L101.101 14.804ZM98.4494 12.074L98.1941 12.5039L98.197 12.5056L98.4494 12.074ZM91.2474 11.086V10.586H90.7474V11.086H91.2474ZM89.8954 28.5C89.6411 28.5 89.4493 28.4189 89.2869 28.2564L88.5798 28.9636C88.9374 29.3211 89.3869 29.5 89.8954 29.5V28.5ZM89.2869 28.2564C89.1245 28.094 89.0434 27.9022 89.0434 27.648H88.0434C88.0434 28.1565 88.2222 28.606 88.5798 28.9636L89.2869 28.2564ZM89.0434 27.648V10.046H88.0434V27.648H89.0434ZM89.0434 10.046C89.0434 9.7674 89.1286 9.58569 89.2745 9.44953L88.5922 8.71847C88.2181 9.06764 88.0434 9.52726 88.0434 10.046H89.0434ZM89.2869 9.43755C89.4493 9.27513 89.6411 9.194 89.8954 9.194V8.194C89.3869 8.194 88.9374 8.37286 88.5798 8.73045L89.2869 9.43755ZM89.8954 9.194H94.6014V8.194H89.8954V9.194ZM94.6014 9.194C96.0352 9.194 97.321 9.43557 98.466 9.90993L98.8487 8.98607C97.5671 8.4551 96.1489 8.194 94.6014 8.194V9.194ZM98.4739 9.91314C99.6412 10.3735 100.648 11.037 101.498 11.9042L102.212 11.2038C101.26 10.2337 100.135 9.49319 98.8408 8.98286L98.4739 9.91314ZM101.502 11.9076C102.353 12.7586 103.009 13.7661 103.47 14.9354L104.4 14.5686C103.891 13.2766 103.161 12.1521 102.209 11.2004L101.502 11.9076ZM103.47 14.9354C103.93 16.1007 104.163 17.3982 104.163 18.834H105.163C105.163 17.2885 104.912 15.8646 104.4 14.5686L103.47 14.9354ZM104.163 18.834C104.163 20.2697 103.93 21.5767 103.469 22.7608L104.401 23.1232C104.912 21.8113 105.163 20.3797 105.163 18.834H104.163ZM103.47 22.7586C103.009 23.9287 102.352 24.9463 101.498 25.8158L102.212 26.5162C103.162 25.5484 103.891 24.4166 104.4 23.1254L103.47 22.7586ZM101.502 25.8124C100.65 26.6648 99.6401 27.3305 98.4683 27.8091L98.8464 28.7349C100.136 28.2082 101.259 27.4699 102.209 26.5196L101.502 25.8124ZM98.4717 27.8078C97.3251 28.2664 96.0373 28.5 94.6014 28.5V29.5C96.1468 29.5 97.5629 29.2483 98.8431 28.7362L98.4717 27.8078ZM94.6014 28.5H89.8954V29.5H94.6014V28.5ZM91.2474 27.108H94.6014V26.108H91.2474V27.108ZM94.6014 27.108C96.1354 27.108 97.5085 26.7601 98.7046 26.0499L98.1941 25.1901C97.1716 25.7972 95.9793 26.108 94.6014 26.108V27.108ZM98.7066 26.0487C99.9096 25.3269 100.856 24.3434 101.539 23.1057L100.664 22.6223C100.065 23.7072 99.2424 24.5611 98.1921 25.1913L98.7066 26.0487ZM101.541 23.103C102.227 21.8423 102.563 20.415 102.563 18.834H101.563C101.563 20.269 101.259 21.5284 100.662 22.625L101.541 23.103ZM102.563 18.834C102.563 17.2369 102.227 15.8081 101.539 14.5623L100.664 15.0457C101.258 16.1226 101.563 17.3804 101.563 18.834H102.563ZM101.539 14.5623C100.855 13.3235 99.9075 12.3473 98.7017 11.6424L98.197 12.5056C99.2446 13.1181 100.065 13.9619 100.664 15.0457L101.539 14.5623ZM98.7046 11.6441C97.5085 10.9339 96.1354 10.586 94.6014 10.586V11.586C95.9793 11.586 97.1716 11.8968 98.1941 12.5039L98.7046 11.6441ZM94.6014 10.586H91.2474V11.586H94.6014V10.586ZM90.7474 11.086V26.608H91.7474V11.086H90.7474ZM106.475 28.376L106.051 28.641L106.475 28.376ZM106.397 27.05L106.854 27.2531L106.858 27.2431L106.397 27.05ZM113.703 9.604L113.243 9.40703L113.242 9.41086L113.703 9.604ZM116.251 9.604L115.782 9.77809L115.786 9.78774L115.79 9.79723L116.251 9.604ZM123.583 27.102L124.048 26.9191L124.044 26.9088L123.583 27.102ZM123.479 28.428L123.06 28.1548L123.057 28.1596L123.479 28.428ZM121.607 28.792L121.322 29.2031L121.34 29.2154L121.359 29.2261L121.607 28.792ZM121.113 28.168L121.577 27.9823L121.577 27.9813L121.113 28.168ZM114.665 12.152V11.652H113.925L114.201 12.3387L114.665 12.152ZM115.393 12.152L115.856 12.3413L116.138 11.652H115.393V12.152ZM108.841 28.168L109.299 28.3685L109.304 28.3573L108.841 28.168ZM108.295 28.792L108.047 28.3579L108.04 28.3619L108.033 28.3662L108.295 28.792ZM108.971 24.528L108.517 24.3171L108.187 25.028H108.971V24.528ZM110.011 22.292V21.792H109.692L109.557 22.0811L110.011 22.292ZM120.203 22.292L120.656 22.0811L120.522 21.792H120.203V22.292ZM121.243 24.528V25.028H122.027L121.696 24.3171L121.243 24.528ZM107.593 28.5C107.282 28.5 107.069 28.3827 106.899 28.111L106.051 28.641C106.401 29.2013 106.933 29.5 107.593 29.5V28.5ZM106.899 28.111C106.731 27.8431 106.71 27.5772 106.854 27.2531L105.94 26.8469C105.668 27.4588 105.698 28.0769 106.051 28.641L106.899 28.111ZM106.858 27.2431L114.164 9.79714L113.242 9.41086L105.936 26.8569L106.858 27.2431ZM114.162 9.80096C114.266 9.55972 114.386 9.41446 114.507 9.32837C114.624 9.24495 114.772 9.194 114.977 9.194V8.194C114.592 8.194 114.234 8.29472 113.926 8.51463C113.622 8.73187 113.4 9.04161 113.243 9.40704L114.162 9.80096ZM114.977 9.194C115.205 9.194 115.361 9.24837 115.473 9.32837C115.586 9.40938 115.696 9.54578 115.782 9.77809L116.72 9.42991C116.58 9.05555 116.365 8.73695 116.054 8.51463C115.741 8.29129 115.372 8.194 114.977 8.194V9.194ZM115.79 9.79723L123.122 27.2952L124.044 26.9088L116.712 9.41077L115.79 9.79723ZM123.117 27.2848C123.256 27.6364 123.222 27.9061 123.06 28.1549L123.898 28.7011C124.255 28.1525 124.291 27.5383 124.048 26.9192L123.117 27.2848ZM123.057 28.1596C122.918 28.3785 122.715 28.5 122.361 28.5V29.5C123.012 29.5 123.555 29.2402 123.901 28.6964L123.057 28.1596ZM122.361 28.5C122.194 28.5 122.028 28.4567 121.855 28.3579L121.359 29.2261C121.671 29.4046 122.007 29.5 122.361 29.5V28.5ZM121.891 28.3809C121.749 28.2821 121.645 28.1533 121.577 27.9823L120.649 28.3537C120.788 28.7027 121.014 28.9899 121.322 29.2031L121.891 28.3809ZM121.577 27.9813L115.129 11.9653L114.201 12.3387L120.649 28.3547L121.577 27.9813ZM114.665 12.652H115.393V11.652H114.665V12.652ZM114.93 11.9627L108.378 27.9787L109.304 28.3573L115.856 12.3413L114.93 11.9627ZM108.383 27.9676C108.301 28.1551 108.188 28.277 108.047 28.3579L108.543 29.2261C108.887 29.0296 109.138 28.7355 109.299 28.3684L108.383 27.9676ZM108.033 28.3662C107.879 28.4609 107.735 28.5 107.593 28.5V29.5C107.936 29.5 108.26 29.4005 108.557 29.2178L108.033 28.3662ZM109.424 24.7389L110.464 22.5029L109.557 22.0811L108.517 24.3171L109.424 24.7389ZM110.011 22.792H120.203V21.792H110.011V22.792ZM119.749 22.5029L120.789 24.7389L121.696 24.3171L120.656 22.0811L119.749 22.5029ZM121.243 24.028H108.971V25.028H121.243V24.028ZM134.661 28.61L134.296 28.9512L134.302 28.9575L134.308 28.9636L134.661 28.61ZM134.687 9.084L134.334 8.73045V8.73045L134.687 9.084ZM136.975 26.296H136.475V26.796H136.975V26.296ZM147.349 26.686L147.703 26.3324V26.3324L147.349 26.686ZM147.349 28.61L147.703 28.9636V28.9636L147.349 28.61ZM135.623 28.5C135.369 28.5 135.177 28.4189 135.015 28.2564L134.308 28.9636C134.665 29.3211 135.115 29.5 135.623 29.5V28.5ZM135.027 28.2688C134.877 28.1085 134.797 27.9127 134.797 27.648H133.797C133.797 28.146 133.96 28.5915 134.296 28.9512L135.027 28.2688ZM134.797 27.648V10.046H133.797V27.648H134.797ZM134.797 10.046C134.797 9.79178 134.878 9.59997 135.041 9.43755L134.334 8.73045C133.976 9.08803 133.797 9.53755 133.797 10.046H134.797ZM135.041 9.43755C135.208 9.27025 135.393 9.194 135.623 9.194V8.194C135.125 8.194 134.686 8.37775 134.334 8.73045L135.041 9.43755ZM135.623 9.194C135.877 9.194 136.069 9.27513 136.232 9.43755L136.939 8.73045C136.581 8.37286 136.132 8.194 135.623 8.194V9.194ZM136.232 9.43755C136.394 9.59997 136.475 9.79178 136.475 10.046H137.475C137.475 9.53755 137.296 9.08803 136.939 8.73045L136.232 9.43755ZM136.475 10.046V26.296H137.475V10.046H136.475ZM136.975 26.796H146.387V25.796H136.975V26.796ZM146.387 26.796C146.641 26.796 146.833 26.8771 146.996 27.0396L147.703 26.3324C147.345 25.9749 146.896 25.796 146.387 25.796V26.796ZM146.996 27.0396C147.158 27.202 147.239 27.3938 147.239 27.648H148.239C148.239 27.1395 148.06 26.69 147.703 26.3324L146.996 27.0396ZM147.239 27.648C147.239 27.9022 147.158 28.094 146.996 28.2564L147.703 28.9636C148.06 28.606 148.239 28.1565 148.239 27.648H147.239ZM146.996 28.2564C146.833 28.4189 146.641 28.5 146.387 28.5V29.5C146.896 29.5 147.345 29.3211 147.703 28.9636L146.996 28.2564ZM146.387 28.5H135.623V29.5H146.387V28.5ZM151.369 28.61L151.015 28.9636V28.9636L151.369 28.61ZM151.369 9.084L151.71 9.44953L151.716 9.44365L151.722 9.43755L151.369 9.084ZM153.293 9.084L152.927 9.42516L152.939 9.43776L152.952 9.44953L153.293 9.084ZM153.293 28.61L152.939 28.2564L152.933 28.2625L152.927 28.2688L153.293 28.61ZM152.331 28.5C152.077 28.5 151.885 28.4189 151.722 28.2564L151.015 28.9636C151.373 29.3211 151.822 29.5 152.331 29.5V28.5ZM151.722 28.2564C151.56 28.094 151.479 27.9022 151.479 27.648H150.479C150.479 28.1565 150.658 28.606 151.015 28.9636L151.722 28.2564ZM151.479 27.648V10.046H150.479V27.648H151.479ZM151.479 10.046C151.479 9.7674 151.564 9.58569 151.71 9.44953L151.028 8.71847C150.654 9.06764 150.479 9.52726 150.479 10.046H151.479ZM151.722 9.43755C151.885 9.27513 152.077 9.194 152.331 9.194V8.194C151.822 8.194 151.373 8.37286 151.015 8.73045L151.722 9.43755ZM152.331 9.194C152.61 9.194 152.791 9.27927 152.927 9.42516L153.658 8.74284C153.309 8.36873 152.85 8.194 152.331 8.194V9.194ZM152.952 9.44953C153.098 9.58569 153.183 9.7674 153.183 10.046H154.183C154.183 9.52726 154.008 9.06764 153.634 8.71847L152.952 9.44953ZM153.183 10.046V27.648H154.183V10.046H153.183ZM153.183 27.648C153.183 27.9022 153.102 28.094 152.939 28.2564L153.646 28.9636C154.004 28.606 154.183 28.1565 154.183 27.648H153.183ZM152.927 28.2688C152.791 28.4147 152.61 28.5 152.331 28.5V29.5C152.85 29.5 153.309 29.3253 153.658 28.9512L152.927 28.2688ZM159.239 28.61L158.874 28.9512L158.88 28.9575L158.886 28.9636L159.239 28.61ZM159.239 9.084L158.886 8.73045H158.886L159.239 9.084ZM161.241 9.188L161.641 8.88756L161.633 8.87651L161.624 8.86593L161.241 9.188ZM172.577 24.268L172.178 24.5684L173.077 25.7652V24.268H172.577ZM172.967 9.084L173.309 9.44953L173.315 9.44365L173.321 9.43755L172.967 9.084ZM174.891 9.084L174.526 9.42516L174.532 9.43146L174.538 9.43755L174.891 9.084ZM173.357 28.896L173.15 29.3512L173.174 29.362L173.199 29.3703L173.357 28.896ZM172.889 28.532L172.49 28.8325L172.495 28.839L172.889 28.532ZM161.553 13.452L161.953 13.1516L161.053 11.9548V13.452H161.553ZM161.163 28.61L160.81 28.2564L160.804 28.2625L160.798 28.2688L161.163 28.61ZM160.201 28.5C159.947 28.5 159.755 28.4189 159.593 28.2564L158.886 28.9636C159.243 29.3211 159.693 29.5 160.201 29.5V28.5ZM159.605 28.2688C159.455 28.1085 159.375 27.9127 159.375 27.648H158.375C158.375 28.146 158.538 28.5915 158.874 28.9512L159.605 28.2688ZM159.375 27.648V10.046H158.375V27.648H159.375ZM159.375 10.046C159.375 9.75676 159.459 9.57124 159.593 9.43755L158.886 8.73045C158.534 9.08209 158.375 9.5379 158.375 10.046H159.375ZM159.593 9.43755C159.755 9.27513 159.947 9.194 160.201 9.194V8.194C159.693 8.194 159.243 8.37286 158.886 8.73045L159.593 9.43755ZM160.201 9.194C160.464 9.194 160.673 9.28901 160.859 9.51007L161.624 8.86593C161.255 8.42832 160.771 8.194 160.201 8.194V9.194ZM160.842 9.48844L172.178 24.5684L172.977 23.9676L161.641 8.88756L160.842 9.48844ZM173.077 24.268V10.046H172.077V24.268H173.077ZM173.077 10.046C173.077 9.7674 173.163 9.58569 173.309 9.44953L172.626 8.71847C172.252 9.06764 172.077 9.52726 172.077 10.046H173.077ZM173.321 9.43755C173.483 9.27513 173.675 9.194 173.929 9.194V8.194C173.421 8.194 172.971 8.37286 172.614 8.73045L173.321 9.43755ZM173.929 9.194C174.208 9.194 174.39 9.27927 174.526 9.42516L175.257 8.74284C174.908 8.36873 174.448 8.194 173.929 8.194V9.194ZM174.538 9.43755C174.672 9.57124 174.755 9.75676 174.755 10.046H175.755C175.755 9.5379 175.597 9.08209 175.245 8.73045L174.538 9.43755ZM174.755 10.046V27.648H175.755V10.046H174.755ZM174.755 27.648C174.755 27.9127 174.676 28.1085 174.526 28.2688L175.257 28.9512C175.593 28.5915 175.755 28.146 175.755 27.648H174.755ZM174.526 28.2688C174.39 28.4147 174.208 28.5 173.929 28.5V29.5C174.448 29.5 174.908 29.3253 175.257 28.9512L174.526 28.2688ZM173.929 28.5C173.822 28.5 173.685 28.4783 173.516 28.4217L173.199 29.3703C173.445 29.4524 173.69 29.5 173.929 29.5V28.5ZM173.564 28.4408C173.443 28.3856 173.353 28.3133 173.284 28.225L172.495 28.839C172.669 29.0627 172.891 29.2331 173.15 29.3512L173.564 28.4408ZM173.289 28.2316L161.953 13.1516L161.154 13.7524L172.49 28.8324L173.289 28.2316ZM161.053 13.452V27.648H162.053V13.452H161.053ZM161.053 27.648C161.053 27.9022 160.972 28.094 160.81 28.2564L161.517 28.9636C161.875 28.606 162.053 28.1565 162.053 27.648H161.053ZM160.798 28.2688C160.662 28.4147 160.48 28.5 160.201 28.5V29.5C160.72 29.5 161.18 29.3253 161.529 28.9512L160.798 28.2688ZM180.847 28.61L180.494 28.9636L180.5 28.9693L180.505 28.9748L180.847 28.61ZM180.847 9.084L180.505 8.71923L180.5 8.72474L180.494 8.73045L180.847 9.084ZM183.161 17.846H182.661V19.0531L183.515 18.1996L183.161 17.846ZM191.767 9.24L191.414 8.88644V8.88645L191.767 9.24ZM192.339 8.824L192.525 9.28824L192.544 9.28051L192.563 9.27121L192.339 8.824ZM194.029 10.02L194.524 10.0942L194.524 10.0907L194.029 10.02ZM193.535 10.982L193.89 11.3349L193.895 11.3298L193.9 11.3247L193.535 10.982ZM186.905 17.638L186.551 17.2851L186.249 17.5887L186.502 17.934L186.905 17.638ZM193.665 26.842L194.074 26.5536L194.068 26.546L193.665 26.842ZM193.925 27.804L194.423 27.8563L194.423 27.8538L193.925 27.804ZM193.561 28.662L193.929 29.0011L193.935 28.9944L193.941 28.9874L193.561 28.662ZM191.611 28.428L192.025 28.1463L192.019 28.1387L192.014 28.1312L191.611 28.428ZM185.033 19.51L185.436 19.2132L185.091 18.7455L184.68 19.1564L185.033 19.51ZM183.161 21.382L182.808 21.0284L182.661 21.1749V21.382H183.161ZM181.809 28.5C181.579 28.5 181.379 28.4226 181.189 28.2452L180.505 28.9748C180.871 29.3174 181.312 29.5 181.809 29.5V28.5ZM181.201 28.2564C181.039 28.094 180.957 27.9022 180.957 27.648H179.957C179.957 28.1565 180.136 28.606 180.494 28.9636L181.201 28.2564ZM180.957 27.648V10.046H179.957V27.648H180.957ZM180.957 10.046C180.957 9.79178 181.039 9.59997 181.201 9.43755L180.494 8.73045C180.136 9.08803 179.957 9.53755 179.957 10.046H180.957ZM181.189 9.44877C181.379 9.2714 181.579 9.194 181.809 9.194V8.194C181.312 8.194 180.871 8.3766 180.505 8.71923L181.189 9.44877ZM181.809 9.194C182.064 9.194 182.255 9.27513 182.418 9.43755L183.125 8.73045C182.767 8.37286 182.318 8.194 181.809 8.194V9.194ZM182.418 9.43755C182.58 9.59997 182.661 9.79178 182.661 10.046H183.661C183.661 9.53755 183.483 9.08803 183.125 8.73045L182.418 9.43755ZM182.661 10.046V17.846H183.661V10.046H182.661ZM183.515 18.1996L192.121 9.59355L191.414 8.88645L182.808 17.4924L183.515 18.1996ZM192.121 9.59355C192.306 9.40892 192.44 9.32213 192.525 9.28824L192.154 8.35976C191.892 8.46453 191.645 8.65508 191.414 8.88644L192.121 9.59355ZM192.563 9.27121C192.668 9.21867 192.774 9.194 192.885 9.194V8.194C192.616 8.194 192.357 8.256 192.116 8.37679L192.563 9.27121ZM192.885 9.194C193.219 9.194 193.352 9.28954 193.418 9.37968L194.225 8.78832C193.909 8.35846 193.419 8.194 192.885 8.194V9.194ZM193.418 9.37968C193.521 9.51922 193.571 9.69503 193.534 9.94929L194.524 10.0907C194.592 9.61697 194.504 9.16878 194.225 8.78832L193.418 9.37968ZM193.535 9.94583C193.5 10.1769 193.39 10.407 193.171 10.6393L193.9 11.3247C194.236 10.9677 194.455 10.5564 194.524 10.0942L193.535 9.94583ZM193.181 10.6291L186.551 17.2851L187.26 17.9909L193.89 11.3349L193.181 10.6291ZM186.502 17.934L193.262 27.138L194.068 26.546L187.308 17.342L186.502 17.934ZM193.257 27.1303C193.398 27.3305 193.45 27.5319 193.428 27.7542L194.423 27.8538C194.47 27.3828 194.349 26.9428 194.074 26.5537L193.257 27.1303ZM193.428 27.7517C193.404 27.984 193.321 28.1738 193.182 28.3366L193.941 28.9874C194.218 28.6648 194.378 28.2826 194.423 27.8563L193.428 27.7517ZM193.194 28.3229C193.094 28.4318 192.957 28.5 192.729 28.5V29.5C193.196 29.5 193.613 29.3429 193.929 29.0011L193.194 28.3229ZM192.729 28.5C192.399 28.5 192.186 28.3829 192.025 28.1463L191.198 28.7097C191.557 29.2358 192.089 29.5 192.729 29.5V28.5ZM192.014 28.1312L185.436 19.2132L184.631 19.8068L191.209 28.7248L192.014 28.1312ZM184.68 19.1564L182.808 21.0284L183.515 21.7356L185.387 19.8636L184.68 19.1564ZM182.661 21.382V27.648H183.661V21.382H182.661ZM182.661 27.648C182.661 27.9022 182.58 28.094 182.418 28.2564L183.125 28.9636C183.483 28.606 183.661 28.1565 183.661 27.648H182.661ZM182.418 28.2564C182.255 28.4189 182.064 28.5 181.809 28.5V29.5C182.318 29.5 182.767 29.3211 183.125 28.9636L182.418 28.2564Z" fill="white"/>
<defs>
<filter id="filter0_i_7045_7584" x="0.499878" y="0.5" width="54.0002" height="41" filterUnits="userSpaceOnUse" color-interpolation-filters="sRGB">
<feFlood flood-opacity="0" result="BackgroundImageFix"/>
<feBlend mode="normal" in="SourceGraphic" in2="BackgroundImageFix" result="shape"/>
<feColorMatrix in="SourceAlpha" type="matrix" values="0 0 0 0 0 0 0 0 0 0 0 0 0 0 0 0 0 0 127 0" result="hardAlpha"/>
<feOffset dx="2"/>
<feGaussianBlur stdDeviation="1"/>
<feComposite in2="hardAlpha" operator="arithmetic" k2="-1" k3="1"/>
<feColorMatrix type="matrix" values="0 0 0 0 0.767059 0 0 0 0 0.870833 0 0 0 0 0.790492 0 0 0 0.5 0"/>
<feBlend mode="normal" in2="shape" result="effect1_innerShadow_7045_7584"/>
</filter>
</defs>
</svg>
